<svg version="1.1" viewBox="0 0 286.97 135.78" xml:space="preserve" xmlns="http://www.w3.org/2000/svg"><defs><clipPath id="clipPath16"><path d="M 0,198.425 H 311.811 V 0 H 0 Z"/></clipPath></defs><g transform="matrix(1.3333 0 0 -1.3333 -64.392 200.18)"><g clip-path="url(#clipPath16)"><g transform="translate(250.96 150.13)"><path d="m0 0h-190.11c-6.924 0-12.557-5.628-12.557-12.545v-76.748c0-6.917 5.633-12.545 12.557-12.545h190.11c6.924 0 12.558 5.628 12.558 12.545v76.748c0 6.917-5.634 12.545-12.558 12.545" fill="#fff"/></g><g transform="translate(250.96 148.82)"><path d="m0 0h-190.11c-6.211 0-11.244-5.031-11.244-11.232v-76.748c0-6.204 5.033-11.232 11.244-11.232h190.11c6.211 0 11.244 5.028 11.244 11.232v76.748c0 6.201-5.033 11.232-11.244 11.232"/></g><g transform="translate(130.44 126.51)"><path d="m0 0c0 6.209-5.031 11.247-11.245 11.247-6.21 0-11.245-5.038-11.245-11.247 0-6.21 5.035-11.247 11.245-11.247 6.214 0 11.245 5.037 11.245 11.247" fill="#fff"/></g><path d="m139.28 134.15h12.571v-71.334h-12.571z" fill="#fff"/><path d="m163.01 109.54h12.572v-46.722h-12.572z" fill="#fff"/><g transform="translate(106.59 74.686)"><path d="m0 0c-6.344 0-11.48 5.134-11.48 11.478 0 6.336 5.136 11.477 11.48 11.477 6.339 0 11.478-5.141 11.478-11.477 0-6.344-5.139-11.478-11.478-11.478m0 35.321c-4.081 0-7.921-1.025-11.279-2.83v26.976h-12.573v-47.989c0-13.173 10.678-23.851 23.852-23.851 13.168 0 23.846 10.678 23.846 23.851 0 13.168-10.678 23.843-23.846 23.843" fill="#fff"/></g><g transform="translate(130.44 126.51)"><path d="m0 0c0 6.209-5.031 11.247-11.245 11.247-6.21 0-11.245-5.038-11.245-11.247 0-6.21 5.035-11.247 11.245-11.247 6.214 0 11.245 5.037 11.245 11.247" fill="#fff"/></g><path d="m139.28 134.15h12.571v-71.334h-12.571z" fill="#fff"/><path d="m163.01 109.54h12.572v-46.722h-12.572z" fill="#fff"/><g transform="translate(106.59 74.686)"><path d="m0 0c-6.344 0-11.48 5.134-11.48 11.478 0 6.336 5.136 11.477 11.48 11.477 6.339 0 11.478-5.141 11.478-11.477 0-6.344-5.139-11.478-11.478-11.478m0 35.321c-4.081 0-7.921-1.025-11.279-2.83v26.976h-12.573v-47.989c0-13.173 10.678-23.851 23.852-23.851 13.168 0 23.846 10.678 23.846 23.851 0 13.168-10.678 23.843-23.846 23.843" fill="#fff"/></g><g transform="translate(216.95 62.819)"><path d="m0 0h16.201l-19.464 25.129 17.642 21.593h-14.687l-17.326-21.727v46.339h-12.574v-71.334h12.574l-0.01 24.934z" fill="#fff"/></g></g></g></svg>
