<svg version="1.1" viewBox="0 0 664.24 204.24" xml:space="preserve" xmlns="http://www.w3.org/2000/svg">
<g transform="translate(-88.834 -191.37)">
	<path d="m286.44 272.1c-2.31-4.44-6.5-8.09-12.54-10.94-3.2-1.42-6.99-2.58-11.34-3.47-4.36-0.89-9.39-1.42-15.08-1.6 1.07-2.49 2.04-4.67 2.94-6.54 0.89-1.87 1.69-3.42 2.4-4.67 5.16-9.43 9.16-17.43 12.01-24.02 2.85-6.58 4.8-11.92 5.87-16.01s1.29-7.16 0.67-9.21c-0.63-2.04-1.73-3.33-3.33-3.87-3.2-0.89-6.99-0.31-11.34 1.73-4.36 2.05-8.99 5.07-13.88 9.07-4.9 4-9.88 8.68-14.95 14.01-5.07 5.34-10.1 10.86-15.08 16.55-4.98 5.7-9.7 11.26-14.14 16.68-4.45 5.43-8.37 10.19-11.74 14.28-12.46 2.85-26.25 6.63-41.37 11.34-15.13 4.72-31.85 10.46-50.18 17.21-3.38 1.96-5.43 3.83-6.14 5.61s-0.44 3.12 0.8 4c1.24 0.89 3.33 1.16 6.27 0.8 2.94-0.35 6.27-1.78 10.01-4.27 3.74-2.31 8.63-4.8 14.68-7.47s12.54-5.25 19.48-7.74 13.97-4.8 21.08-6.94c7.12-2.13 13.61-3.91 19.48-5.34-1.96 2.31-3.87 4.63-5.74 6.94s-3.78 4.72-5.74 7.21c-9.97 12.46-19.53 24.78-28.69 36.96-9.17 12.19-17.48 23.89-24.96 35.1-0.89 1.42-0.71 2.13 0.53 2.13s2.89-0.49 4.94-1.47c2.04-0.98 4.22-2.4 6.54-4.27 2.31-1.87 4.18-3.96 5.61-6.27 3.74-5.51 6.98-10.54 9.74-15.08s5.61-9.07 8.54-13.61c2.94-4.54 6.14-9.21 9.61-14.01s7.7-10.32 12.68-16.55c2.49-3.2 5.02-6.41 7.61-9.61 2.58-3.2 5.2-6.4 7.87-9.61 20.1-4.63 36.47-7.03 49.11-7.21-1.07 2.31-2.76 6.14-5.07 11.48s-4.72 11.34-7.21 18.01-4.9 13.66-7.21 20.95c-2.31 7.3-4 14.06-5.07 20.28-1.07 6.23-1.25 11.57-0.53 16.01 0.71 4.45 2.76 7.12 6.14 8.01 3.91 1.07 8.32 0.76 13.21-0.93s9.88-4.36 14.95-8.01c5.07-3.64 10.01-8.01 14.81-13.08s9.12-10.41 12.95-16.01c3.82-5.61 6.98-11.12 9.47-16.55s3.91-10.45 4.27-15.08c0.35-5.49-0.63-10.47-2.94-14.92zm-91.01-10.14c0.89-1.07 2.76-3.29 5.61-6.67 2.84-3.38 6.23-7.29 10.14-11.74s8.18-9.12 12.81-14.01c4.62-4.89 9.12-9.3 13.48-13.21s8.36-6.98 12.01-9.21c3.64-2.22 6.54-3.07 8.67-2.54 0.89 0.36 1.69 0.98 2.4 1.87s0.84 2.67 0.4 5.34c-0.45 2.67-1.69 6.5-3.74 11.48s-5.3 11.65-9.74 20.02c-0.71 1.43-1.56 3.2-2.54 5.34-0.98 2.13-2.18 4.63-3.6 7.47-12.63 0.34-27.93 2.3-45.9 5.86zm87.81 26.15c-0.36 5.87-2.49 12.19-6.41 18.95-3.91 6.77-8.63 12.95-14.14 18.55-5.52 5.6-11.3 10.01-17.35 13.21s-11.48 4.1-16.28 2.67c-2.31-0.71-3.65-2.94-4-6.67-0.36-3.74-0.09-8.27 0.8-13.61s2.22-11.12 4-17.35 3.64-12.14 5.61-17.75c1.96-5.61 3.82-10.63 5.61-15.08 1.78-4.44 3.02-7.47 3.74-9.07 10.68 0.18 19.13 1.78 25.36 4.8 5.16 2.31 8.72 5.34 10.67 9.07 1.94 3.74 2.74 7.84 2.39 12.28z"/>
	<path d="m410.08 310c-0.27-1.07-1.29-0.62-3.07 1.34-1.6 1.78-4.18 4.45-7.74 8.01s-7.43 6.98-11.61 10.28c-4.18 3.29-8.32 5.92-12.41 7.87-4.1 1.96-7.47 2.13-10.14 0.53-2.32-1.96-2.94-5.6-1.87-10.94s3.38-12.28 6.94-20.82c4.62-11.21 9.16-20.82 13.61-28.82 4.45-8.01 8.72-14.95 12.81-20.82 1.42-0.36 2.89-0.71 4.4-1.07s2.98-0.71 4.4-1.07c6.58-1.42 12.99-2.89 19.22-4.4s11.83-2.89 16.81-4.14c4.98-1.24 9.07-2.13 12.28-2.67 3.2-0.53 5.16-0.44 5.87 0.27 1.6 1.43 2.76 1.6 3.47 0.53s0.71-2.04 0-2.94c-0.71-0.89-2.89-1.2-6.54-0.93s-8.14 0.85-13.48 1.73c-5.34 0.89-11.3 2.05-17.88 3.47-6.59 1.43-13.26 2.85-20.02 4.27-0.71 0.18-1.43 0.31-2.13 0.4-0.71 0.09-1.43 0.22-2.14 0.4 4.45-5.69 8.58-10.72 12.41-15.08 3.82-4.36 7.25-8.58 10.28-12.68 2.84-3.56 3.64-5.78 2.4-6.67-1.25-0.89-3.11-1.07-5.6-0.53-2.49 0.53-5.07 1.56-7.74 3.07s-4.1 2.89-4.27 4.14c0 1.96-0.4 3.92-1.2 5.87-0.8 1.96-2 4.1-3.6 6.4-1.6 2.32-3.52 4.9-5.74 7.74-2.23 2.85-4.67 6.14-7.34 9.88-5.34 1.07-9.52 2-12.54 2.8-3.03 0.8-5.52 1.43-7.47 1.87-1.96 0.45-3.74 0.85-5.34 1.2-1.6 0.36-3.56 0.71-5.87 1.07-1.25 0-2.49 0.4-3.74 1.2s-2.23 1.78-2.94 2.94-0.98 2.31-0.8 3.47 0.98 2.09 2.4 2.8c0.53 0.36 1.47 0.31 2.8-0.13s3.29-1.2 5.87-2.27 5.78-2.36 9.61-3.87c3.82-1.51 8.41-2.98 13.75-4.4-3.03 4.63-6.27 9.92-9.74 15.88s-6.98 12.94-10.54 20.95c-3.56 6.94-6.54 13.52-8.94 19.75-0.25 0.65-0.49 1.28-0.72 1.92-1.19 1.27-2.39 2.54-3.64 3.82-3.03 3.11-6.14 6.14-9.34 9.07-3.2 2.94-6.4 5.56-9.61 7.87-3.2 2.31-6.23 4.1-9.07 5.34-2.67 1.07-4.89 1.43-6.67 1.07-1.78-0.35-2.76-1.51-2.94-3.47 0-2.49 0.71-5.2 2.13-8.14s3.07-5.78 4.94-8.54 3.78-5.34 5.74-7.74 3.47-4.4 4.54-6.01c0.36-0.35 0.84-0.98 1.47-1.87 0.62-0.89 0.22-1.78-1.2-2.67-1.25-0.36-3.2-0.62-5.87-0.8-2.67-0.17-5.34-0.4-8.01-0.67s-4.8-0.62-6.4-1.07c-1.6-0.44-1.96-1.11-1.07-2 4.45-4.09 5.96-7.29 4.54-9.61-1.43-2.31-4.27-3.38-8.54-3.2-1.07 0.18-2.31 0.45-3.74 0.8-1.43 0.36-2.67 1.03-3.74 2-1.07 0.98-1.83 2.4-2.27 4.27-0.45 1.87-0.4 4.32 0.13 7.34 0.18 1.43 0 2.98-0.53 4.67s-1.29 3.34-2.27 4.94-2.05 3.16-3.2 4.67c-1.16 1.51-2.36 2.71-3.6 3.6-0.36 0.89-0.05 1.29 0.93 1.2s2.44-0.84 4.4-2.27c3.02-1.96 5.43-4.27 7.21-6.94s2.67-4.18 2.67-4.54c1.07 0.53 2.4 1.07 4 1.6s3.11 1.03 4.54 1.47c1.42 0.45 2.54 0.93 3.34 1.47 0.8 0.53 0.94 1.16 0.4 1.87-2.49 3.38-4.8 7.3-6.94 11.74-2.13 4.45-3.29 9.61-3.47 15.48 0 3.2 0.49 5.83 1.47 7.87 0.98 2.05 2.71 3.6 5.2 4.67 4.98 1.96 9.88 1.64 14.68-0.94s9.34-6.09 13.61-10.54 8.27-9.3 12.01-14.55c0.37-0.51 0.72-1.01 1.08-1.51-0.46 1.77-0.84 3.48-1.13 5.11-1.07 5.7-0.94 10.37 0.4 14.01 1.34 3.65 4.05 6.18 8.14 7.61 3.74 1.07 7.78 0.22 12.14-2.54s8.76-6.31 13.21-10.68c4.45-4.36 8.58-8.98 12.41-13.88 3.82-4.89 7.07-9.03 9.74-12.41 1.61-2.1 2.27-3.71 2.01-4.77z"/>
	<path d="m753.02 313.43c-0.27-1.07-1.29-0.62-3.07 1.34-1.43 1.6-3.47 3.65-6.14 6.14s-5.25 4.45-7.74 5.87c-2.13 1.07-4.05 1.78-5.74 2.13-1.69 0.36-2.71 0.53-3.07 0.53 0.36-0.89 0.89-2.09 1.6-3.6s1.24-4.05 1.6-7.61c0-3.38-2.23-4.98-6.67-4.8-2.31 0.53-4.32 1.65-6.01 3.34s-3.25 3.6-4.67 5.74c-2.49 3.56-3.29 6.32-2.4 8.27 0.89 1.96 3.11 3.2 6.67 3.74-5.34 7.3-10.32 11.97-14.95 14.01-4.63 2.05-8.37 2.4-11.21 1.07-2.85-1.33-4.54-4.05-5.07-8.14s0.71-8.72 3.74-13.88c0.71-1.24 2.04-3.34 4-6.27 1.96-2.94 4.18-5.83 6.67-8.67 2.49-2.85 5.16-5.16 8.01-6.94 2.84-1.78 5.6-2.31 8.27-1.6 0.53 0.18 1.11 0.49 1.73 0.93 0.62 0.45 1.29 0.8 2 1.07s1.47 0.45 2.27 0.53c0.8 0.09 1.64-0.22 2.54-0.93 1.78-1.6 1.96-3.34 0.53-5.2-1.43-1.87-4.18-2.98-8.27-3.34-3.38 0-6.9 0.98-10.54 2.94-3.65 1.96-7.12 4.36-10.41 7.21s-6.32 5.92-9.07 9.21c-2.76 3.29-4.94 6.27-6.54 8.94-0.79 1.19-1.5 2.37-2.14 3.54-1.44 1.51-3.2 3.25-5.32 5.23-2.76 2.58-5.83 5.12-9.21 7.61-3.03 2.13-5.87 3.83-8.54 5.07-2.67 1.25-4 1.16-4-0.27 0-0.71 0.22-1.78 0.67-3.2 0.44-1.42 0.98-3.07 1.6-4.94s1.33-3.78 2.13-5.74 7.44-20.07 8.33-21.68c0.35-1.07 0.67-1.87 0.93-2.4 0.27-0.53 0.44-1.02 0.53-1.47 0.09-0.44 0.17-0.93 0.27-1.47 0.09-0.53 0.22-1.24 0.4-2.13 0.35-2.67-0.53-4.14-2.67-4.4-2.13-0.27-4.18-0.04-6.14 0.67-2.31 0.89-5.07 2.67-8.27 5.34-3.38 3.03-6.81 6.4-10.28 10.14s-6.72 7.34-9.74 10.81c-3.03 3.47-5.74 6.36-8.14 8.67s-4.14 3.47-5.2 3.47c-0.71 0.18-0.98-0.76-0.8-2.8 0.17-2.04 0.67-4.49 1.47-7.34s1.91-5.74 3.33-8.68 2.94-5.38 4.54-7.34c3.56-3.02 5.47-5.51 5.74-7.47s-0.22-3.29-1.47-4-2.85-0.84-4.8-0.4c-1.96 0.45-3.38 1.47-4.27 3.07-0.36 0.36-1.6 2.31-3.74 5.87-0.2 0.34-0.41 0.69-0.61 1.04-0.32 0.27-0.69 0.64-1.1 1.09-1.78 1.78-4.18 4.14-7.21 7.07-3.03 2.94-6.23 5.87-9.61 8.81s-6.59 5.56-9.61 7.87c-3.03 2.32-5.43 3.83-7.21 4.54 1.24-2.67 2.27-5.25 3.07-7.74s1.24-4.71 1.33-6.67-0.09-3.56-0.53-4.8c-0.45-1.24-1.2-1.96-2.27-2.13-3.56 0-7.21 1.6-10.94 4.8-3.74 3.2-7.83 6.59-12.28 10.14-5.34 4.09-9.65 6.9-12.94 8.41s-5.65 1.56-7.07 0.13c-1.78-1.78-2.67-3.87-2.67-6.27s0.71-4.94 2.13-7.61c1.6-3.2 3.42-5.69 5.47-7.47 2.04-1.78 3.87-3.38 5.47-4.8 6.94-5.87 13.52-9.7 19.75-11.48 3.2-0.89 5.47-1.34 6.81-1.34 1.33 0 2.18 0.63 2.54 1.87 0.17 1.07 0.13 2.09-0.13 3.07-0.27 0.98 0.04 1.73 0.94 2.27 3.02 1.07 5.42 1.07 7.21 0 1.78-1.07 2.31-3.02 1.6-5.87-1.25-4.27-3.51-6.94-6.81-8.01-3.29-1.07-7.16-0.98-11.61 0.27-3.74 1.07-7.65 2.8-11.74 5.2s-8.01 5.2-11.74 8.41c-0.76 0.62-1.48 1.25-2.21 1.89-0.02-0.01-0.02-0.02-0.04-0.02-4.45-2.31-9.03-4.27-13.74-5.87-4.72-1.6-9.92-2.04-15.61-1.33-1.25-3.74-1.07-6.94 0.53-9.61s4.54-3.11 8.81-1.33c0.71 0.36 1.2 0.94 1.47 1.73 0.27 0.8 0.58 1.51 0.94 2.13 0.35 0.63 0.8 1.16 1.33 1.6 0.53 0.45 1.34 0.49 2.4 0.13 1.78-1.07 2.98-2.22 3.6-3.47 0.62-1.24 0.67-2.49 0.13-3.74-0.53-1.24-1.51-2.31-2.94-3.2s-3.2-1.42-5.34-1.6c-2.67 0-5.3 0.22-7.87 0.67-2.58 0.45-4.8 1.43-6.67 2.94s-3.16 3.52-3.87 6c-0.71 2.49-0.63 5.7 0.27 9.61-1.07 0.18-2.58 0.53-4.54 1.07-1.96 0.53-3.96 1.2-6 2-2.05 0.8-4.05 1.78-6.01 2.94s-3.56 2.45-4.8 3.87c-2.45 2.45-4.25 5.02-5.41 7.7-1.97 1.28-4.29 2.71-7.01 4.31-6.05 3.56-12.77 6.81-20.15 9.74-7.38 2.94-14.81 5.12-22.29 6.54-7.47 1.43-13.79 0.98-18.95-1.33-1.96-1.07-2.67-2.98-2.13-5.74 0.53-2.76 1.91-5.78 4.14-9.08 2.22-3.29 4.98-6.54 8.27-9.74s6.71-5.87 10.28-8.01c11.21-6.4 19.66-9.61 25.35-9.61 3.74 0 4.54 1.16 2.4 3.47-1.25 1.43-2.85 3.12-4.8 5.07-1.96 1.96-4.54 3.87-7.74 5.74s-7.12 3.47-11.74 4.8c-4.63 1.34-10.14 2-16.55 2 1.42 1.6 4.31 2.23 8.67 1.87s9.12-1.38 14.28-3.07 10.32-4 15.48-6.94 9.25-6.18 12.28-9.74c3.38-4.09 4.36-6.81 2.94-8.14-1.43-1.33-4.18-2.18-8.27-2.54h-5.2c-1.69 0-3.56 0.22-5.6 0.67-2.05 0.45-4.36 1.11-6.94 2s-5.74 2.13-9.47 3.74c-4.1 1.78-8.5 4.32-13.21 7.61-4.72 3.29-9.03 6.9-12.94 10.81-3.91 3.92-7.07 8.01-9.47 12.28s-3.16 8.37-2.27 12.28c1.78 4.63 4.72 7.74 8.81 9.34s8.85 2.13 14.28 1.6c5.42-0.53 11.21-1.96 17.35-4.27s12.05-4.98 17.75-8.01c8.54-4.02 15.5-7.9 20.89-11.66-0.23 1.99-0.16 3.96 0.21 5.92 0.63 3.29 2 6.36 4.14 9.21 2.13 2.85 4.8 5.16 8.01 6.94 2.13 1.07 4.36 1.78 6.67 2.13 2.31 0.36 4.62 0.4 6.94 0.13 2.31-0.27 4.36-0.84 6.14-1.73s3.2-2.04 4.27-3.47c1.96-2.31 3.47-5.74 4.54-10.28s0.98-10.18-0.27-16.95c-0.36-1.07-0.67-2.27-0.93-3.6-0.27-1.33-0.58-2.71-0.94-4.14-0.36-1.42-0.71-2.58-1.07-3.47 4.98-1.42 9.16-1.82 12.54-1.2 3.38 0.63 7.38 2.18 12.01 4.67 0.05 0 0.08-0.01 0.13-0.01-2.05 1.96-3.98 4.01-5.76 6.15-3.11 3.74-5.65 7.47-7.61 11.21-1.96 4.1-2.94 7.96-2.94 11.61s1.51 6.81 4.54 9.47c1.43 1.43 3.29 1.91 5.61 1.47 2.31-0.44 4.94-1.47 7.87-3.07 2.94-1.6 5.96-3.6 9.07-6.01 3.11-2.4 6.18-4.76 9.21-7.07 3.74-2.84 7.11-5.38 10.14-7.61 3.02-2.22 4.71-3.16 5.07-2.8-0.36 1.25-0.8 2.49-1.33 3.74-0.36 1.07-0.8 2.31-1.34 3.74-0.53 1.43-1.16 2.85-1.87 4.27-1.43 3.38-2.13 5.96-2.13 7.74 0.18 4.63 3.74 5.43 10.68 2.4 1.6-0.71 3.82-2.31 6.67-4.8 2.84-2.49 5.91-5.42 9.21-8.81 3.29-3.38 6.54-6.94 9.74-10.67 1.41-1.65 2.74-3.23 4.01-4.77-0.19 0.43-0.38 0.86-0.56 1.3-2.05 4.8-3.7 9.83-4.94 15.08s-1.24 9.74 0 13.48c1.24 3.03 2.8 4.45 4.67 4.27s3.64-1.02 5.34-2.54c1.69-1.51 3.24-3.29 4.67-5.34 1.42-2.04 2.4-3.34 2.94-3.87 1.96-2.49 4.54-5.65 7.74-9.47s6.36-7.56 9.47-11.21c3.11-3.64 5.96-6.76 8.54-9.34s4.31-3.87 5.2-3.87 1.15 0.31 0.8 0.94c-0.36 0.63-0.71 1.38-1.07 2.27-1.07 1.78-1.96 3.83-2.67 6.14s-7.13 20.92-7.67 23.14c-0.53 2.23-0.89 4.36-1.07 6.4-0.18 2.05-0.18 3.78 0 5.2 0.18 1.43 0.71 2.49 1.6 3.2 1.78 2.67 4.22 3.47 7.34 2.4 3.11-1.07 6.23-2.84 9.34-5.34 3.11-2.49 6-5.2 8.67-8.14s4.54-5.03 5.61-6.27c0.35-0.36 0.67-0.71 0.93-1.07 0.03-0.04 0.06-0.07 0.09-0.11-0.74 3.18-0.96 6.08-0.64 8.7 0.36 2.94 1.51 5.43 3.47 7.47 1.96 2.05 4.62 3.34 8.01 3.87 2.31 0.36 5.11 0.27 8.41-0.27 3.29-0.53 6.63-1.64 10.01-3.33s6.67-4.05 9.88-7.07c3.2-3.02 5.96-6.85 8.27-11.48 3.38-0.36 6.49-1.16 9.34-2.4 4.98-2.13 8.85-4.58 11.61-7.34s5.02-5.29 6.81-7.61c1.75-2.15 2.51-3.75 2.25-4.82zm-242.08 21.52c-0.71 5.07-2 8.85-3.87 11.34s-4.14 3.38-6.81 2.67-5.25-3.47-7.74-8.27c-0.71-1.6-1.38-3.56-2-5.87-0.63-2.31-0.53-4.71 0.27-7.21 0.8-2.49 2.54-5.07 5.2-7.74 2.67-2.67 6.94-5.16 12.81-7.47 0 0.53 0.17 1.38 0.53 2.54 0.35 1.16 0.53 1.91 0.53 2.27 1.43 6.76 1.79 12.67 1.08 17.74z"/>


	
		<path d="m268.81 376.47c-0.12 0.23-0.25 0.4-0.41 0.49-0.15 0.1-0.34 0.14-0.55 0.14s-0.45-0.08-0.72-0.25c-0.27-0.16-0.58-0.35-0.94-0.55s-0.78-0.39-1.27-0.55c-0.48-0.16-1.06-0.25-1.72-0.25-0.6 0-1.12 0.07-1.56 0.21s-0.81 0.34-1.12 0.6c-0.3 0.25-0.53 0.56-0.68 0.92s-0.22 0.75-0.22 1.17c0 0.54 0.15 1 0.46 1.36 0.3 0.36 0.71 0.67 1.2 0.93 0.5 0.25 1.07 0.48 1.71 0.69 0.64 0.2 1.29 0.42 1.96 0.65s1.32 0.5 1.96 0.8 1.21 0.69 1.71 1.15 0.9 1.03 1.2 1.7 0.46 1.48 0.46 2.44c0 1.04-0.18 2.02-0.53 2.93-0.36 0.91-0.88 1.7-1.57 2.38s-1.52 1.21-2.52 1.6c-0.99 0.39-2.12 0.58-3.4 0.58-0.73 0-1.46-0.07-2.17-0.21s-1.4-0.35-2.05-0.62c-0.66-0.27-1.27-0.58-1.84-0.96-0.57-0.37-1.08-0.79-1.52-1.25l1.25-2.06c0.12-0.15 0.26-0.27 0.42-0.38 0.16-0.1 0.35-0.15 0.55-0.15 0.26 0 0.55 0.11 0.86 0.33s0.67 0.46 1.09 0.73 0.91 0.51 1.48 0.73 1.25 0.33 2.05 0.33c1.22 0 2.17-0.29 2.84-0.87s1.01-1.41 1.01-2.5c0-0.61-0.15-1.1-0.45-1.49-0.3-0.38-0.71-0.7-1.21-0.97s-1.07-0.48-1.71-0.66-1.29-0.38-1.95-0.59-1.31-0.47-1.95-0.77-1.21-0.69-1.71-1.17-0.9-1.08-1.2-1.8-0.46-1.61-0.46-2.66c0-0.84 0.17-1.66 0.5-2.46 0.34-0.8 0.82-1.51 1.47-2.12 0.64-0.62 1.43-1.11 2.37-1.48s2.01-0.56 3.21-0.56c1.36 0 2.62 0.21 3.77 0.64s2.13 1.02 2.94 1.79z"/>
		<path d="m284.4 387.23v8.13h-4.29v-23.09h7.52c1.54 0 2.88 0.18 4.01 0.54s2.06 0.87 2.79 1.52c0.74 0.65 1.28 1.43 1.63 2.33s0.53 1.9 0.53 2.97c0 1.12-0.19 2.14-0.56 3.07s-0.93 1.73-1.68 2.4-1.68 1.19-2.8 1.56-2.43 0.56-3.93 0.56h-3.22zm0-3.36h3.23c0.79 0 1.47-0.1 2.06-0.29 0.59-0.2 1.07-0.48 1.45-0.85s0.67-0.81 0.86-1.34 0.29-1.11 0.29-1.76c0-0.62-0.1-1.18-0.29-1.68s-0.48-0.93-0.86-1.28-0.87-0.62-1.45-0.81-1.27-0.28-2.06-0.28h-3.23z"/>
		<path d="m328.45 383.81c0 1.69-0.28 3.26-0.85 4.7-0.56 1.44-1.36 2.69-2.38 3.74s-2.25 1.88-3.69 2.47-3.03 0.88-4.77 0.88-3.34-0.29-4.78-0.88-2.68-1.41-3.71-2.47c-1.03-1.05-1.82-2.3-2.39-3.74-0.56-1.44-0.85-3.01-0.85-4.7s0.28-3.26 0.85-4.7c0.56-1.44 1.36-2.69 2.39-3.75 1.03-1.05 2.26-1.88 3.71-2.47 1.44-0.59 3.04-0.89 4.78-0.89s3.34 0.3 4.77 0.89c1.44 0.59 2.67 1.42 3.69 2.47s1.81 2.29 2.38 3.74 0.85 3.02 0.85 4.71zm-4.4 0c0-1.27-0.17-2.4-0.5-3.41-0.34-1.01-0.82-1.86-1.45-2.56s-1.39-1.24-2.29-1.61-1.91-0.56-3.04-0.56-2.14 0.19-3.05 0.56c-0.9 0.37-1.67 0.91-2.31 1.61-0.63 0.7-1.12 1.56-1.46 2.56-0.34 1.01-0.51 2.14-0.51 3.41s0.17 2.4 0.51 3.41 0.83 1.86 1.46 2.56 1.4 1.23 2.31 1.6c0.9 0.37 1.92 0.56 3.05 0.56s2.14-0.19 3.04-0.56 1.66-0.91 2.29-1.6c0.63-0.7 1.11-1.55 1.45-2.56 0.33-1.01 0.5-2.14 0.5-3.41z"/>
		<path d="m342.66 386.33v9.02h-4.29v-23.09h7.04c1.58 0 2.93 0.16 4.05 0.49s2.04 0.78 2.76 1.37c0.72 0.58 1.25 1.29 1.58 2.1 0.34 0.81 0.5 1.71 0.5 2.69 0 0.78-0.11 1.51-0.34 2.2s-0.56 1.32-0.99 1.89-0.96 1.06-1.6 1.48c-0.63 0.43-1.35 0.77-2.16 1.02 0.54 0.31 1.01 0.75 1.41 1.33l5.78 8.53h-3.86c-0.37 0-0.69-0.07-0.95-0.22s-0.48-0.36-0.66-0.64l-4.85-7.39c-0.18-0.28-0.38-0.47-0.6-0.59s-0.54-0.18-0.97-0.18h-1.85zm0-3.08h2.68c0.81 0 1.51-0.1 2.12-0.3 0.6-0.2 1.1-0.48 1.48-0.84 0.39-0.36 0.68-0.78 0.87-1.27s0.29-1.03 0.29-1.61c0-1.17-0.39-2.07-1.16-2.7s-1.95-0.94-3.54-0.94h-2.75v7.66z"/>
		<path d="m380.91 372.26v3.53h-6.95v19.56h-4.3v-19.56h-6.98v-3.53z"/>
		<path d="m402.4 376.47c-0.12 0.23-0.25 0.4-0.41 0.49s-0.34 0.14-0.55 0.14-0.45-0.08-0.72-0.25c-0.27-0.16-0.58-0.35-0.94-0.55s-0.78-0.39-1.27-0.55c-0.48-0.16-1.06-0.25-1.72-0.25-0.6 0-1.12 0.07-1.56 0.21s-0.81 0.34-1.12 0.6c-0.3 0.25-0.53 0.56-0.68 0.92s-0.22 0.75-0.22 1.17c0 0.54 0.15 1 0.46 1.36 0.3 0.36 0.71 0.67 1.2 0.93 0.5 0.25 1.07 0.48 1.71 0.69 0.64 0.2 1.29 0.42 1.96 0.65s1.32 0.5 1.96 0.8 1.21 0.69 1.71 1.15 0.9 1.03 1.2 1.7 0.46 1.48 0.46 2.44c0 1.04-0.18 2.02-0.53 2.93-0.36 0.91-0.88 1.7-1.57 2.38s-1.52 1.21-2.52 1.6c-0.99 0.39-2.12 0.58-3.4 0.58-0.73 0-1.46-0.07-2.17-0.21s-1.4-0.35-2.05-0.62c-0.66-0.27-1.27-0.58-1.84-0.96-0.57-0.37-1.08-0.79-1.52-1.25l1.25-2.06c0.12-0.15 0.26-0.27 0.42-0.38 0.16-0.1 0.35-0.15 0.55-0.15 0.26 0 0.55 0.11 0.86 0.33s0.67 0.46 1.09 0.73 0.91 0.51 1.48 0.73 1.25 0.33 2.05 0.33c1.22 0 2.17-0.29 2.84-0.87s1.01-1.41 1.01-2.5c0-0.61-0.15-1.1-0.45-1.49-0.3-0.38-0.71-0.7-1.21-0.97-0.5-0.26-1.07-0.48-1.71-0.66s-1.29-0.38-1.95-0.59-1.31-0.47-1.95-0.77-1.21-0.69-1.71-1.17-0.9-1.08-1.2-1.8-0.46-1.61-0.46-2.66c0-0.84 0.17-1.66 0.5-2.46 0.34-0.8 0.82-1.51 1.47-2.12 0.64-0.62 1.43-1.11 2.37-1.48s2.01-0.56 3.21-0.56c1.36 0 2.62 0.21 3.77 0.64s2.13 1.02 2.94 1.79z"/>
		<path d="m426.09 395.35v-23.09h7.97c1.51 0 2.8 0.14 3.87 0.43s1.95 0.7 2.63 1.23c0.69 0.53 1.19 1.18 1.51 1.93 0.32 0.76 0.48 1.61 0.48 2.56 0 0.54-0.08 1.06-0.24 1.56-0.16 0.49-0.41 0.96-0.74 1.39-0.34 0.43-0.76 0.82-1.28 1.17s-1.13 0.65-1.84 0.89c3.17 0.71 4.76 2.43 4.76 5.14 0 0.98-0.19 1.89-0.56 2.71-0.37 0.83-0.92 1.55-1.63 2.15s-1.59 1.07-2.63 1.41-2.24 0.51-3.58 0.51h-8.72zm4.3-13.09h3.43c1.46 0 2.57-0.26 3.32-0.8 0.76-0.53 1.13-1.38 1.13-2.54 0-1.2-0.34-2.06-1.02-2.57s-1.75-0.77-3.19-0.77h-3.67zm0 2.97v6.77h4.36c0.8 0 1.47-0.1 2-0.29 0.54-0.19 0.97-0.45 1.29-0.77s0.56-0.69 0.7-1.12 0.22-0.88 0.22-1.36c0-0.5-0.08-0.95-0.24-1.35s-0.41-0.74-0.75-1.02-0.78-0.5-1.31-0.65-1.18-0.22-1.93-0.22h-4.34z"/>
		<path d="m473.58 395.35h-3.32c-0.37 0-0.68-0.09-0.92-0.28s-0.41-0.42-0.52-0.69l-1.72-4.71h-9.56l-1.73 4.71c-0.08 0.24-0.25 0.47-0.5 0.67s-0.56 0.3-0.92 0.3h-3.34l9.07-23.09h4.39zm-14.94-8.71h7.36l-2.81-7.68c-0.13-0.34-0.27-0.74-0.42-1.2s-0.3-0.97-0.45-1.51c-0.15 0.54-0.3 1.05-0.44 1.52s-0.28 0.88-0.42 1.23z"/>
		<path d="m486.79 386.33v9.02h-4.29v-23.09h7.04c1.58 0 2.92 0.16 4.05 0.49 1.12 0.33 2.04 0.78 2.76 1.37 0.72 0.58 1.25 1.29 1.58 2.1 0.34 0.81 0.5 1.71 0.5 2.69 0 0.78-0.11 1.51-0.34 2.2s-0.56 1.32-0.99 1.89c-0.43 0.56-0.96 1.06-1.6 1.48-0.63 0.43-1.36 0.77-2.16 1.02 0.54 0.31 1.01 0.75 1.4 1.33l5.78 8.53h-3.86c-0.37 0-0.69-0.07-0.95-0.22s-0.48-0.36-0.66-0.64l-4.85-7.39c-0.18-0.28-0.38-0.47-0.6-0.59s-0.54-0.18-0.97-0.18h-1.84zm0-3.08h2.68c0.81 0 1.51-0.1 2.11-0.3s1.1-0.48 1.48-0.84c0.39-0.36 0.68-0.78 0.87-1.27s0.29-1.03 0.29-1.61c0-1.17-0.39-2.07-1.16-2.7s-1.95-0.94-3.54-0.94h-2.75v7.66z"/>
		<path d="m530.46 372.01c0.94 0 1.77 0.14 2.52 0.43 0.74 0.29 1.37 0.67 1.9 1.15s0.94 1.03 1.25 1.65c0.3 0.62 0.48 1.26 0.53 1.92l-2.51 0.53c-0.03 0.01-0.07 0.02-0.1 0.02h-0.1c-0.18 0-0.34-0.05-0.49-0.15-0.14-0.1-0.26-0.26-0.34-0.47-0.1-0.28-0.22-0.54-0.37-0.79s-0.33-0.47-0.54-0.66-0.46-0.34-0.75-0.45-0.62-0.17-0.99-0.17c-0.45 0-0.85 0.08-1.2 0.23s-0.65 0.36-0.89 0.62c-0.25 0.26-0.43 0.56-0.56 0.91s-0.19 0.71-0.19 1.09c0 0.32 0.03 0.63 0.1 0.93s0.18 0.6 0.33 0.89c0.15 0.3 0.34 0.6 0.58 0.92s0.53 0.65 0.89 1.01l6.13 6.37c0.35-0.67 0.63-1.38 0.85-2.12 0.21-0.75 0.35-1.5 0.41-2.27 0.02-0.24 0.1-0.44 0.24-0.59s0.33-0.22 0.57-0.22h2.48c-0.01 1.4-0.21 2.75-0.61 4.02-0.39 1.28-0.96 2.45-1.69 3.53l4.84 5.01h-3.86c-0.2 0-0.38-0.01-0.53-0.03s-0.3-0.06-0.44-0.12-0.27-0.14-0.4-0.23c-0.13-0.1-0.26-0.22-0.4-0.37l-1.6-1.64c-1.02 0.83-2.16 1.48-3.41 1.95s-2.6 0.7-4.06 0.7c-0.89 0-1.77-0.15-2.62-0.45s-1.61-0.74-2.28-1.32c-0.67-0.57-1.21-1.27-1.62-2.08s-0.61-1.73-0.61-2.75c0-0.71 0.12-1.39 0.35-2.04s0.56-1.24 0.97-1.8c0.42-0.55 0.91-1.05 1.48-1.5s1.19-0.83 1.88-1.15c-0.56-0.8-0.98-1.58-1.24-2.34s-0.39-1.52-0.39-2.28c0-0.8 0.15-1.56 0.44-2.28s0.72-1.34 1.28-1.88c0.56-0.53 1.24-0.96 2.05-1.27 0.78-0.3 1.7-0.46 2.72-0.46zm-5.56 16.67c0 0.58 0.1 1.11 0.3 1.58s0.48 0.87 0.83 1.19c0.35 0.33 0.76 0.57 1.22 0.75s0.96 0.26 1.48 0.26c0.94 0 1.79-0.15 2.56-0.44s1.48-0.7 2.12-1.22l-6.07-6.23c-0.85 0.55-1.47 1.18-1.86 1.87-0.38 0.7-0.58 1.44-0.58 2.24z"/>
		<path d="m578.51 372.26v3.42h-10.24v6.83h8.64v3.43h-8.64v9.4h-4.33v-23.09h14.57z"/>
		<path d="m610.41 383.81c0 1.69-0.28 3.26-0.85 4.7-0.56 1.44-1.36 2.69-2.38 3.74s-2.25 1.88-3.69 2.47-3.03 0.88-4.77 0.88c-1.75 0-3.34-0.29-4.78-0.88s-2.68-1.41-3.71-2.47c-1.03-1.05-1.82-2.3-2.39-3.74-0.56-1.44-0.85-3.01-0.85-4.7s0.28-3.26 0.85-4.7c0.56-1.44 1.36-2.69 2.39-3.75 1.03-1.05 2.26-1.88 3.71-2.47 1.44-0.59 3.04-0.89 4.78-0.89s3.34 0.3 4.77 0.89c1.44 0.59 2.67 1.42 3.69 2.47s1.81 2.29 2.38 3.74 0.85 3.02 0.85 4.71zm-4.41 0c0-1.27-0.17-2.4-0.5-3.41-0.34-1.01-0.82-1.86-1.44-2.56-0.63-0.7-1.39-1.24-2.29-1.61s-1.91-0.56-3.04-0.56-2.15 0.19-3.05 0.56-1.68 0.91-2.31 1.61-1.12 1.56-1.46 2.56c-0.34 1.01-0.51 2.14-0.51 3.41s0.17 2.4 0.51 3.41 0.83 1.86 1.46 2.56 1.4 1.23 2.31 1.6c0.9 0.37 1.92 0.56 3.05 0.56s2.14-0.19 3.04-0.56 1.66-0.91 2.29-1.6 1.11-1.55 1.44-2.56c0.34-1.01 0.5-2.14 0.5-3.41z"/>
		<path d="m642.33 383.81c0 1.69-0.28 3.26-0.85 4.7-0.56 1.44-1.36 2.69-2.38 3.74s-2.25 1.88-3.69 2.47-3.03 0.88-4.77 0.88c-1.75 0-3.34-0.29-4.78-0.88s-2.68-1.41-3.71-2.47c-1.03-1.05-1.82-2.3-2.39-3.74-0.56-1.44-0.85-3.01-0.85-4.7s0.28-3.26 0.85-4.7c0.56-1.44 1.36-2.69 2.39-3.75s2.26-1.88 3.71-2.47c1.44-0.59 3.04-0.89 4.78-0.89s3.34 0.3 4.77 0.89c1.44 0.59 2.67 1.42 3.69 2.47s1.81 2.29 2.38 3.74 0.85 3.02 0.85 4.71zm-4.41 0c0-1.27-0.17-2.4-0.5-3.41-0.34-1.01-0.82-1.86-1.44-2.56-0.63-0.7-1.39-1.24-2.29-1.61s-1.91-0.56-3.04-0.56-2.15 0.19-3.05 0.56-1.68 0.91-2.31 1.61-1.12 1.56-1.46 2.56c-0.34 1.01-0.51 2.14-0.51 3.41s0.17 2.4 0.51 3.41 0.83 1.86 1.46 2.56 1.4 1.23 2.31 1.6c0.9 0.37 1.92 0.56 3.05 0.56s2.14-0.19 3.04-0.56 1.66-0.91 2.29-1.6c0.63-0.7 1.11-1.55 1.44-2.56s0.5-2.14 0.5-3.41z"/>
		<path d="m672.6 383.81c0 1.69-0.28 3.25-0.85 4.66-0.56 1.42-1.36 2.63-2.38 3.66-1.02 1.02-2.25 1.81-3.69 2.38-1.44 0.56-3.03 0.85-4.77 0.85h-8.81v-23.09h8.81c1.75 0 3.34 0.28 4.77 0.85 1.44 0.57 2.67 1.36 3.69 2.38s1.81 2.23 2.38 3.65c0.57 1.41 0.85 2.97 0.85 4.66zm-4.39 0c0-1.27-0.17-2.4-0.51-3.41s-0.83-1.86-1.45-2.55c-0.63-0.7-1.39-1.23-2.29-1.61-0.9-0.37-1.91-0.56-3.04-0.56h-4.49v16.25h4.49c1.13 0 2.14-0.19 3.04-0.56s1.66-0.91 2.29-1.6c0.63-0.7 1.11-1.55 1.45-2.56 0.34-1 0.51-2.13 0.51-3.4z"/>
	
</g>
</svg>
